<?xml version="1.0" encoding="utf-8"?>
<!-- Generator: Adobe Illustrator 24.1.1, SVG Export Plug-In . SVG Version: 6.00 Build 0)  -->
<svg version="1.1" id="Camada_1" xmlns="http://www.w3.org/2000/svg" xmlns:xlink="http://www.w3.org/1999/xlink" x="0px" y="0px"
	 viewBox="0 0 222 60" style="enable-background:new 0 0 222 60;" xml:space="preserve">
<style type="text/css">
	.st0{fill:#FFFFFF;}
</style>
<g transform="translate(-448 -63)">
	<path class="st0" d="M448,123v-2.2h21.1c4.1,0,4.8-8.8,10.2-8.8h159.3c4.1,0,4.8-8.8,10.2-8.8H670v2.2h-21.2
		c-3.6,0-4.4,8.6-10.1,8.8v0H479.3c-3.6,0-4.4,8.6-10.1,8.8v0H448z M534.2,95.5V83.1h5v12.7c0,3.8,1.5,5.8,4,5.8c2.6,0,4-1.8,4-5.8
		V83.1h5v12.4c0,6.8-3.4,10.1-9.2,10.1C537.4,105.7,534.2,102.6,534.2,95.5L534.2,95.5z M555.6,104.3l1-4.1c1.7,0.9,3.6,1.4,5.5,1.4
		c2.3,0,3.5-0.9,3.5-2.4c0-1.4-1-2.2-3.7-3.1c-3.7-1.3-6.1-3.4-6.1-6.6c0-3.8,3.2-6.7,8.3-6.7c1.9-0.1,3.9,0.3,5.6,1.1l-1.1,4
		c-1.4-0.7-3-1.1-4.6-1.1c-2.2,0-3.2,1-3.2,2.1c0,1.4,1.2,2,4.1,3.1c3.9,1.4,5.7,3.5,5.7,6.6c0,3.7-2.8,6.9-8.8,6.9
		C559.6,105.7,557.5,105.2,555.6,104.3z M511.4,105.2V83.5c2.2-0.3,4.4-0.5,6.7-0.5c4.2,0,7,0.8,9,2.4c2.3,1.7,3.7,4.4,3.7,8.4
		c0,4.2-1.5,7.2-3.6,9c-2.3,1.9-5.9,2.9-10.2,2.9C515.2,105.6,513.3,105.5,511.4,105.2z M516.4,87v14.5c0.6,0.1,1.1,0.1,1.7,0.1
		c4.5,0,7.5-2.5,7.5-7.8c0-4.6-2.7-7-7-7C517.9,86.8,517.1,86.9,516.4,87L516.4,87z M633.7,105.3l-1.7-5.7h-6.3l-1.6,5.7H619
		l6.7-22.2h6.5l6.9,22.2L633.7,105.3z M627.7,91.2l-1.3,4.7h4.9l-1.4-4.7c-0.4-1.3-0.8-3-1.1-4.3h-0.1
		C628.4,88.2,628.1,89.9,627.7,91.2L627.7,91.2z M611.3,105.3V83.1h5v22.2H611.3z M603.5,105.3c-0.7-1.7-1.2-3.4-1.5-5.2
		c-0.6-2.8-1.6-3.5-3.6-3.6h-1.5v8.7h-4.9V83.4c2.2-0.3,4.4-0.5,6.6-0.5c3.3,0,5.6,0.5,7.1,1.7c1.4,1.1,2.2,2.9,2.1,4.7
		c0,2.4-1.6,4.6-3.9,5.4v0.1c1.5,0.6,2.4,2.1,2.9,4.1c0.7,2.5,1.3,5.4,1.8,6.3L603.5,105.3z M596.9,86.9V93h2c2.5,0,3.9-1.3,3.9-3.2
		c0-2-1.4-3.1-3.7-3.1C598.4,86.7,597.6,86.8,596.9,86.9L596.9,86.9z M578.3,105.3v-18h-5.9v-4.2h16.9v4.2h-6v18H578.3z
		 M501.9,105.3l-4.7-8.6c-1.4-2.5-2.7-5.2-3.8-7.8h-0.1c0.2,3,0.2,6.1,0.2,9.7v6.7h-4.6V83.1h5.8l4.6,8.1c1.3,2.5,2.5,5,3.6,7.6h0.1
		c-0.3-2.9-0.4-5.9-0.4-9.3v-6.5h4.6v22.2H501.9z M479.6,105.3V83.1h5v22.2H479.6z M542,83.1l2-3h3.8l-2.9,3H542z M515.1,72.1v-8.9
		h2v8.9c0,3.4,1.5,4.8,3.5,4.8c2.2,0,3.7-1.5,3.7-4.8v-8.9h2v8.8c0,4.6-2.4,6.5-5.7,6.5C517.4,78.6,515.1,76.8,515.1,72.1z
		 M593.4,77.6l0.5-1.6c1.1,0.6,2.3,1,3.5,1c2,0,3.2-1.1,3.2-2.6c0-1.4-0.8-2.2-2.8-3c-2.5-0.9-4-2.2-4-4.3c0-2.4,1.9-4.1,4.9-4.1
		c1.2,0,2.3,0.2,3.3,0.7l-0.5,1.6c-0.9-0.5-1.9-0.7-2.9-0.7c-2.1,0-2.8,1.2-2.8,2.3c0,1.4,0.9,2.1,3,2.9c2.5,1,3.8,2.2,3.8,4.4
		c0,2.3-1.7,4.3-5.3,4.3C595.9,78.6,594.6,78.3,593.4,77.6z M501.2,70.9c-0.2-4.1,2.9-7.7,7-7.9c0.3,0,0.5,0,0.8,0
		c1.2-0.1,2.5,0.2,3.6,0.7l-0.5,1.6c-1-0.4-2-0.6-3-0.6c-3.5,0-5.9,2.3-5.9,6.2c0,3.7,2.1,6.1,5.8,6.1c1.1,0,2.2-0.2,3.2-0.6
		l0.4,1.5c-1.3,0.5-2.6,0.8-4,0.7C504.4,78.6,501.2,75.9,501.2,70.9z M610,78.3V63.5c1.4-0.2,2.7-0.3,4.1-0.3c2.8,0,4.8,0.7,6.1,1.9
		c1.5,1.4,2.2,3.4,2.1,5.4c0.1,2.2-0.7,4.3-2.2,5.9c-1.4,1.4-3.7,2.2-6.7,2.2C612.3,78.5,611.1,78.4,610,78.3z M611.9,64.9v11.9
		c0.7,0.1,1.3,0.1,2,0.1c4.2,0,6.4-2.3,6.4-6.4c0-3.6-2-5.8-6.1-5.8C613.4,64.7,612.7,64.7,611.9,64.9z M568.3,78.3V63.5
		c1.4-0.2,2.8-0.3,4.1-0.3c2.8,0,4.8,0.7,6.1,1.9c1.5,1.4,2.2,3.4,2.1,5.4c0.1,2.2-0.7,4.3-2.2,5.9c-1.4,1.4-3.7,2.2-6.7,2.2
		C570.7,78.5,569.5,78.4,568.3,78.3z M570.3,64.9v11.9c0.7,0.1,1.3,0.1,2,0.1c4.2,0,6.4-2.3,6.4-6.4c0-3.6-2-5.8-6.1-5.8
		C571.8,64.7,571,64.7,570.3,64.9z M540.1,78.3V63.5c1.4-0.2,2.7-0.3,4.1-0.3c2.8,0,4.8,0.7,6.1,1.9c1.5,1.4,2.2,3.4,2.1,5.4
		c0.1,2.2-0.7,4.3-2.2,5.9c-1.4,1.4-3.7,2.2-6.7,2.2C542.4,78.5,541.3,78.4,540.1,78.3z M542,64.9v11.9c0.7,0.1,1.3,0.1,2,0.1
		c4.2,0,6.4-2.3,6.4-6.4c0-3.6-2-5.8-6.1-5.8C543.5,64.7,542.8,64.7,542,64.9L542,64.9z M633.9,78.4l-1.6-4.7H627l-1.6,4.7h-2
		l5.1-15.1h2.3l5.1,15.1H633.9z M628.8,67.7l-1.5,4.4h4.5l-1.5-4.3c-0.3-1-0.6-1.9-0.8-2.8h0C629.4,65.9,629.1,66.8,628.8,67.7z
		 M583.2,78.4V63.3h8.1v1.6h-6.2v4.8h5.9v1.6h-5.9v5.4h6.5v1.6H583.2z M564,78.4l-1.6-4.7h-5.3l-1.6,4.7h-2l5.1-15.1h2.3l5.1,15.1
		L564,78.4z M559,67.7l-1.5,4.4h4.5l-1.5-4.3c-0.3-1-0.6-1.9-0.8-2.8h0C559.5,65.9,559.3,66.8,559,67.7z M529.5,78.4V63.3h1.9v13.5
		h6.4v1.6H529.5z M498.2,78.4l-1.6-4.7h-5.3l-1.6,4.7h-2l5.1-15.1h2.3l5.1,15.1L498.2,78.4z M493.1,67.7l-1.5,4.4h4.5l-1.5-4.3
		c-0.3-1-0.6-1.9-0.8-2.8h0C493.6,65.9,493.4,66.8,493.1,67.7z M479.6,78.4V63.3h8.1v1.6h-6.2v5h5.7v1.6h-5.7v6.8L479.6,78.4z"/>
</g>
</svg>
